<svg height="512pt" viewBox="0 -21 512.001 512" width="512pt" xmlns="http://www.w3.org/2000/svg"><path d="m457.425781 145.4375h-29.28125l-3.402343 5.523438c-.539063.871093-1.21875 1.355468-1.914063 1.355468-.683594 0-1.359375-.464844-1.910156-1.308594l-3.621094-5.570312h-45.542969c.398438 3.277344.628906 6.609375.628906 9.996094v60.628906l.101563.207031c1.289063 2.667969 1.945313 5.492188 1.945313 8.394531v.25h17.902343c14.503907 0 27.949219-7.179687 35.964844-19.199218.679687-1.015625 1.8125-1.621094 3.03125-1.621094 1.222656 0 2.355469.605469 3.03125 1.621094 8.019531 12.019531 21.460937 19.199218 35.964844 19.199218h8.453125c2.007812 0 3.644531 1.628907 3.644531 3.636719v14.359375h11.980469c1.203125 0 2.371094.136719 3.503906.378906.472656-2.484374.726562-5.042968.726562-7.664062v-48.941406c0-22.683594-18.542968-41.246094-41.207031-41.246094zm0 0" fill="#775436"/><path d="m464.285156 360.085938h-29.082031v6.105468c0 10.820313-8.796875 19.625-19.605469 19.625h-12.179687c-10.808594 0-19.601563-8.804687-19.601563-19.625v-6.105468h-28.910156c5.859375 7.523437 9.359375 16.96875 9.359375 27.214843v82.914063h134.59375c2.441406 0 4.421875-1.980469 4.421875-4.425782v-66.730468c0-21.488282-17.492188-38.972656-38.996094-38.972656zm0 0" fill="#ef5050"/><path d="m422.414062 349.160156h-25.8125c-4.722656 0-9.339843-.566406-13.785156-1.632812v18.667968c0 11.339844 9.269532 20.621094 20.601563 20.621094h12.179687c11.332032 0 20.605469-9.28125 20.605469-20.621094v-18.667968c-4.449219 1.0625-9.066406 1.632812-13.789063 1.632812zm0 0" fill="#ffc7a1"/><path d="m494.402344 241.910156h-11.980469v47.328125c0 3.023438-.230469 6-.667969 8.90625h12.648438c9.679687 0 17.597656-7.90625 17.597656-17.574219v-21.085937c0-9.667969-7.921875-17.574219-17.597656-17.574219zm0 0" fill="#ffc7a1"/><path d="m478.777344 223.914062h-8.457032c-14.164062 0-27.296874-7.011718-35.132812-18.753906-.859375-1.289062-2.308594-2.066406-3.859375-2.066406s-3.003906.777344-3.863281 2.066406c-7.832032 11.742188-20.964844 18.753906-35.132813 18.753906h-17.925781c.007812.25.019531.5.019531.75v24.570313c0 2.902344-.652343 5.730469-1.945312 8.398437l-.097657.207032v57.613281c0 2.429687-1.980468 4.40625-4.410156 4.40625h-24.078125c10.589844 18.105469 30.242188 30.300781 52.707031 30.300781h25.8125c33.640626 0 61.007813-27.328125 61.007813-60.921875v-60.6875c0-2.558593-2.078125-4.636719-4.644531-4.636719zm0 0" fill="#ffd5b3"/><path d="m445.878906 267.742188c-4.140625 0-7.5-3.359376-7.5-7.5v-14.0625c0-4.140626 3.359375-7.5 7.5-7.5s7.5 3.359374 7.5 7.5v14.0625c0 4.140624-3.359375 7.5-7.5 7.5zm0 0" fill="#775436"/><path d="m417.5 283.359375h-8.929688c-6.976562 0-12.648437-5.675781-12.648437-12.65625v-13.386719c0-4.144531 3.355469-7.5 7.5-7.5 4.140625 0 7.5 3.355469 7.5 7.5v11.042969h6.578125c4.140625 0 7.5 3.359375 7.5 7.5 0 4.144531-3.359375 7.5-7.5 7.5zm0 0" fill="#c6a07d"/><path d="m409.507812 329.039062c-16.871093 0-30.597656-12.4375-30.597656-27.722656 0-2.460937 1.996094-4.457031 4.460938-4.457031h52.277344c2.460937 0 4.457031 1.996094 4.457031 4.457031 0 15.285156-13.726563 27.722656-30.597657 27.722656zm0 0" fill="#fb8276"/><path d="m139.519531 216.269531.097657-.207031v-60.628906c0-3.386719.230468-6.71875.632812-9.996094h-85.675781c-22.664063 0-41.207031 18.558594-41.207031 41.246094v48.941406c0 2.617188.257812 5.175781.730468 7.664062 1.128906-.246093 2.296875-.378906 3.5-.378906h11.980469v-14.359375c0-2.007812 1.632813-3.640625 3.640625-3.640625h52.097656c14.5 0 27.945313-7.175781 35.964844-19.195312.675781-1.015625 1.808594-1.621094 3.03125-1.621094 1.21875 0 2.351562.605469 3.027344 1.621094 3.140625 4.703125 7.117187 8.65625 11.65625 11.734375.164062-.394531.332031-.789063.523437-1.179688zm0 0" fill="#0291c9"/><path d="m147.734375 387.300781c0-10.246093 3.5-19.6875 9.359375-27.214843h-28.910156v6.105468c0 10.820313-8.792969 19.625-19.601563 19.625h-12.179687c-10.808594 0-19.605469-8.804687-19.605469-19.625v-6.105468h-29.082031c-21.503906 0-38.996094 17.484374-38.996094 38.972656v66.730468c0 2.445313 1.976562 4.425782 4.417969 4.425782h134.59375v-82.914063zm0 0" fill="#d5e962"/><path d="m115.398438 349.160156h-25.8125c-4.722657 0-9.339844-.566406-13.789063-1.632812v18.667968c0 11.339844 9.273437 20.621094 20.605469 20.621094h12.179687c11.332031 0 20.601563-9.28125 20.601563-20.621094v-18.667968c-4.445313 1.0625-9.0625 1.632812-13.785156 1.632812zm0 0" fill="#ffc7a1"/><path d="m29.578125 289.238281v-47.328125h-11.980469c-9.675781 0-17.597656 7.90625-17.597656 17.574219v21.085937c0 9.667969 7.921875 17.574219 17.597656 17.574219h12.644532c-.433594-2.90625-.664063-5.882812-.664063-8.90625zm0 0" fill="#ffc7a1"/><path d="m168.105469 319.859375h-24.078125c-2.429688 0-4.410156-1.976563-4.410156-4.40625v-57.617187l-.097657-.203126c-1.292969-2.671874-1.945312-5.496093-1.945312-8.398437v-24.570313c0-2.8125.617187-5.546874 1.828125-8.140624-4.371094-2.996094-8.199219-6.820313-11.230469-11.363282-.859375-1.289062-2.308594-2.066406-3.859375-2.066406-1.554688 0-3.003906.777344-3.863281 2.066406-7.832031 11.742188-20.964844 18.75-35.132813 18.75h-52.097656c-2.5625 0-4.640625 2.078125-4.640625 4.640625v60.6875c0 33.59375 27.367187 60.921875 61.007813 60.921875h25.8125c22.464843 0 42.117187-12.199218 52.707031-30.300781zm0 0" fill="#ffd5b3"/><path d="m66.121094 267.742188c-4.140625 0-7.5-3.359376-7.5-7.5v-14.0625c0-4.140626 3.359375-7.5 7.5-7.5s7.5 3.359374 7.5 7.5v14.0625c0 4.140624-3.359375 7.5-7.5 7.5zm0 0" fill="#c6a07d"/><path d="m113.050781 283.359375h-8.929687c-6.976563 0-12.648438-5.675781-12.648438-12.65625v-13.386719c0-4.144531 3.355469-7.5 7.5-7.5 4.140625 0 7.5 3.355469 7.5 7.5v11.042969h6.578125c4.140625 0 7.5 3.359375 7.5 7.5 0 4.144531-3.359375 7.5-7.5 7.5zm0 0" fill="#c6a07d"/><path d="m102.488281 329.039062c-16.871093 0-30.59375-12.4375-30.59375-27.722656 0-2.460937 1.996094-4.457031 4.460938-4.457031h52.273437c2.464844 0 4.460938 1.996094 4.460938 4.457031 0 15.285156-13.726563 27.722656-30.601563 27.722656zm0 0" fill="#fb8276"/><path d="m319.828125 341.890625h-33.726563v10.523437c0 10.820313-8.792968 19.621094-19.601562 19.621094h-21c-10.808594 0-19.601562-8.800781-19.601562-19.621094v-10.523437h-33.726563c-25.054687 0-45.441406 20.371094-45.441406 45.410156v82.914063h218.535156v-82.914063c.003906-25.039062-20.382813-45.410156-45.4375-45.410156zm0 0" fill="#75eae7"/><path d="m171.628906 269.566406-.125-.851562h-14.425781c-8.566406 0-15.847656-5.554688-18.460937-13.242188v59.984375c0 2.984375 2.421874 5.40625 5.410156 5.40625h63.730468c-18.914062-10.261719-32.839843-28.980469-36.128906-51.296875zm0 0" fill="#f7931e"/><path d="m351.808594 124.769531c-2.289063 0-4.152344-1.863281-4.152344-4.15625v-25.257812c-14.972656-14.335938-35.253906-23.175781-57.578125-23.175781h-68.15625c-11.488281 0-22.4375 2.335937-32.402344 6.558593v22.28125c0 2.292969-1.863281 4.15625-4.152343 4.15625h-15.757813c-3.390625 0-6.152344 2.761719-6.152344 6.15625v19.792969c0 .433594-.0625 1.855469-.910156 1.855469-.230469 0-.734375-.089844-1.496094-.695313l-14.734375-11.746094c-4.929687 10.621094-7.699218 22.4375-7.699218 34.894532v62.992187c2.613281-7.683593 9.894531-13.238281 18.460937-13.238281h13.792969v-16.566406c0-2.425782 1.980468-4.402344 4.410156-4.402344h60.703125c16.84375 0 32.457031-8.335938 41.769531-22.296875.820313-1.226563 2.191406-1.960937 3.671875-1.960937 1.476563 0 2.847657.734374 3.667969 1.960937 9.3125 13.960937 24.925781 22.296875 41.769531 22.296875h9.851563c2.429687 0 4.410156 1.976562 4.410156 4.402344v16.566406h13.792969c8.570312 0 15.851562 5.554688 18.464843 13.238281v-62.992187c0-10.824219-2.101562-21.167969-5.882812-30.664063zm0 0" fill="#f7931e"/><path d="m354.917969 268.710938h-14.425781l-.125.855468c-3.289063 22.3125-17.210938 41.03125-36.125 51.292969h63.730468c2.988282 0 5.410156-2.421875 5.410156-5.40625v-59.980469c-2.613281 7.6875-9.894531 13.238282-18.464843 13.238282zm0 0" fill="#f7931e"/><g fill="#ffc7a1"><path d="m271.039062 329.324219h-30.074218c-5.503906 0-10.886719-.660157-16.066406-1.898438v24.988281c0 11.34375 9.269531 20.621094 20.605468 20.621094h20.996094c11.332031 0 20.601562-9.277344 20.601562-20.621094v-24.988281c-5.179687 1.238281-10.5625 1.898438-16.0625 1.898438zm0 0"/><path d="m245.5 372.039062c-10.808594 0-19.601562-8.804687-19.601562-19.625v-23.730468c4.953124 1.089844 10.015624 1.640625 15.0625 1.640625h30.074218c5.050782 0 10.109375-.550781 15.066406-1.640625v23.730468c0 10.820313-8.792968 19.625-19.601562 19.625zm0 0"/><path d="m170.875 259.335938v-55.148438h-13.796875c-11.277344 0-20.503906 9.214844-20.503906 20.476562v24.570313c0 11.265625 9.230469 20.480469 20.503906 20.480469h14.570313c-.507813-3.386719-.773438-6.851563-.773438-10.378906zm0 0"/><path d="m354.917969 204.1875h-13.792969v55.148438c0 3.523437-.269531 6.988281-.777344 10.375h14.570313c11.28125 0 20.507812-9.210938 20.507812-20.476563v-24.570313c0-11.261718-9.226562-20.476562-20.507812-20.476562zm0 0"/></g><path d="m240.960938 330.324219c-39.199219 0-71.089844-31.847657-71.089844-70.988281v-70.714844c0-2.984375 2.425781-5.402344 5.410156-5.402344h60.703125c16.507813 0 31.8125-8.167969 40.9375-21.851562 1.003906-1.503907 2.691406-2.40625 4.503906-2.40625 1.808594 0 3.496094.902343 4.5 2.40625 9.125 13.683593 24.429688 21.851562 40.9375 21.851562h9.851563c2.988281 0 5.410156 2.417969 5.410156 5.402344v70.714844c0 39.144531-31.890625 70.988281-71.085938 70.988281zm0 0" fill="#ffd5b3"/><path d="m213.621094 233.046875c-4.144532 0-7.5-3.355469-7.5-7.5v-16.382813c0-4.140624 3.355468-7.5 7.5-7.5 4.140625 0 7.5 3.359376 7.5 7.5v16.382813c0 4.144531-3.359375 7.5-7.5 7.5zm0 0" fill="#775436"/><path d="m298.378906 233.046875c-4.140625 0-7.5-3.355469-7.5-7.5v-16.382813c0-4.140624 3.359375-7.5 7.5-7.5 4.144532 0 7.5 3.359376 7.5 7.5v16.382813c0 4.144531-3.355468 7.5-7.5 7.5zm0 0" fill="#775436"/><path d="m268.304688 251.25h-11.253907c-6.976562 0-12.652343-5.679688-12.652343-12.65625v-16.453125c0-4.140625 3.359374-7.5 7.5-7.5 4.140624 0 7.5 3.359375 7.5 7.5v14.109375h8.90625c4.140624 0 7.5 3.355469 7.5 7.5 0 4.140625-3.359376 7.5-7.5 7.5zm0 0" fill="#c6a07d"/><path d="m256 305.710938c-19.660156 0-35.652344-14.492188-35.652344-32.300782 0-2.867187 2.324219-5.195312 5.195313-5.195312h60.914062c2.871094 0 5.195313 2.328125 5.195313 5.195312 0 17.808594-15.992188 32.300782-35.652344 32.300782zm0 0" fill="#fb8276"/><path d="m53.054688 5.15625c0-2.835938 2.316406-5.15625 5.148437-5.15625h127.164063c2.832031 0 5.152343 2.320312 5.152343 5.15625v95.863281c0 2.835938-2.320312 5.15625-5.152343 5.15625h-15.757813c-2.835937 0-5.152344 2.320313-5.152344 5.15625v19.792969c0 2.835938-1.8125 3.710938-4.027343 1.945312l-29.710938-23.683593c-2.214844-1.765625-6.347656-3.210938-9.179688-3.210938h-63.335937c-2.832031 0-5.148437-2.320312-5.148437-5.15625zm0 0" fill="#ffc502"/><path d="m159.164062 36.035156h-74.757812c-4.140625 0-7.5-3.359375-7.5-7.5 0-4.144531 3.359375-7.5 7.5-7.5h74.757812c4.144532 0 7.5 3.355469 7.5 7.5 0 4.140625-3.355468 7.5-7.5 7.5zm0 0" fill="#775436"/><path d="m159.164062 60.585938h-74.757812c-4.140625 0-7.5-3.355469-7.5-7.5 0-4.140626 3.359375-7.5 7.5-7.5h74.757812c4.144532 0 7.5 3.359374 7.5 7.5 0 4.144531-3.355468 7.5-7.5 7.5zm0 0" fill="#775436"/><path d="m117.8125 85.140625h-33.40625c-4.140625 0-7.5-3.355469-7.5-7.5 0-4.140625 3.359375-7.5 7.5-7.5h33.40625c4.140625 0 7.5 3.359375 7.5 7.5 0 4.144531-3.359375 7.5-7.5 7.5zm0 0" fill="#775436"/><path d="m484.121094 24.75c0-2.835938-2.316406-5.15625-5.152344-5.15625h-127.160156c-2.835938 0-5.152344 2.320312-5.152344 5.15625v95.863281c0 2.835938 2.316406 5.15625 5.152344 5.15625h46.355468c2.832032 0 6.417969 1.941407 7.960938 4.320313l13.953125 21.460937c1.546875 2.378907 4.027344 2.347657 5.515625-.066406l13.136719-21.328125c1.488281-2.414062 5.019531-4.386719 7.855469-4.386719h32.382812c2.835938 0 5.152344-2.320312 5.152344-5.15625zm0 0" fill="#ffc502"/><path d="m452.765625 55.625h-74.753906c-4.144531 0-7.5-3.355469-7.5-7.5 0-4.140625 3.355469-7.5 7.5-7.5h74.753906c4.140625 0 7.5 3.359375 7.5 7.5 0 4.144531-3.355469 7.5-7.5 7.5zm0 0" fill="#775436"/><path d="m452.765625 80.179688h-74.753906c-4.144531 0-7.5-3.359376-7.5-7.5 0-4.144532 3.355469-7.5 7.5-7.5h74.753906c4.140625 0 7.5 3.355468 7.5 7.5 0 4.144531-3.355469 7.5-7.5 7.5zm0 0" fill="#775436"/><path d="m411.414062 104.734375h-33.402343c-4.144531 0-7.5-3.355469-7.5-7.5s3.355469-7.5 7.5-7.5h33.398437c4.144532 0 7.5 3.355469 7.5 7.5.003906 4.144531-3.355468 7.5-7.496094 7.5zm0 0" fill="#775436"/></svg>